<svg xmlns="http://www.w3.org/2000/svg" viewBox="0 0 800 3200" width="800" height="3200">
<rect width="800" height="3200" fill="#FFF8EC"/>
<defs>
  <style>
    .s  { fill:none; stroke:#2D5016; stroke-linecap:round; stroke-linejoin:round; }
    .w1 { stroke-width:1; }
    .w15{ stroke-width:1.5; }
    .w2 { stroke-width:2; }
    .w3 { stroke-width:3; }
    text { font-family:'Noto Serif Telugu',Georgia,serif; fill:#2D5016; }
  </style>
</defs>

<!-- ═══ BORDER ═══ -->
<rect x="18" y="18" width="764" height="3164" fill="none" stroke="#2D5016" stroke-width="0.8" stroke-dasharray="6,5" opacity="0.35"/>

<!-- ═══ TITLE ═══ -->
<text font-size="30" text-anchor="middle" x="400" y="72" letter-spacing="3">ఆమృతం</text>
<text font-size="11" text-anchor="middle" x="400" y="92" letter-spacing="5" opacity="0.55" font-family="Georgia,serif">AAMRUTHAM</text>
<text font-size="9" text-anchor="middle" x="400" y="108" letter-spacing="3" opacity="0.4" font-family="Georgia,serif" font-style="italic">from soil to soul</text>
<path class="s w1" d="M310,114 C340,111 370,112 400,113 C430,112 460,111 490,114" opacity="0.4"/>

<!-- ══════════════════════════════════════════════════
     STAGE 1 — SEED  y≈130–420
══════════════════════════════════════════════════ -->
<text font-size="20" text-anchor="middle" x="400" y="156">బీజం</text>
<text font-size="10" text-anchor="middle" x="400" y="172" font-family="Georgia,serif" opacity="0.5" letter-spacing="2">SEED</text>

<!-- soil surface — organic wavy line -->
<path class="s w15" d="M60,310 C120,304 180,308 240,305 C300,302 360,307 400,306 C440,305 500,302 560,305 C620,308 680,304 740,308"/>
<!-- soil texture hatching -->
<path class="s w1" opacity="0.5" d="M80,322 C110,319 140,323 160,321"/>
<path class="s w1" opacity="0.5" d="M200,328 C235,325 265,329 290,327"/>
<path class="s w1" opacity="0.5" d="M340,320 C370,317 400,321 420,319"/>
<path class="s w1" opacity="0.5" d="M470,326 C505,323 535,327 560,325"/>
<path class="s w1" opacity="0.5" d="M600,319 C630,316 660,320 685,318"/>
<path class="s w1" opacity="0.5" d="M100,342 C130,339 155,343 175,341"/>
<path class="s w1" opacity="0.5" d="M250,348 C285,345 315,349 340,347"/>
<path class="s w1" opacity="0.5" d="M440,340 C470,337 498,341 520,339"/>
<path class="s w1" opacity="0.5" d="M570,346 C600,343 628,347 650,345"/>
<path class="s w1" opacity="0.5" d="M90,365 C130,361 170,365 200,363"/>
<path class="s w1" opacity="0.5" d="M300,368 C340,364 380,368 410,366"/>
<path class="s w1" opacity="0.5" d="M490,362 C525,358 558,362 585,360"/>
<path class="s w1" opacity="0.5" d="M620,367 C655,363 685,367 710,365"/>
<!-- pebbles -->
<path class="s w1" d="M160,333 C162,329 167,328 170,331 C172,334 171,338 168,339 C164,340 161,337 160,333"/>
<path class="s w1" d="M510,336 C512,332 517,331 520,334 C522,337 521,341 518,342 C514,343 511,340 510,336"/>
<path class="s w1" d="M650,328 C653,323 660,322 664,326 C667,330 665,336 661,337 C656,338 652,334 650,328"/>

<!-- THE MANGO SEED — proper ovoid shape, cracked -->
<!-- left half of seed shell -->
<path class="s w15" d="M355,268 C342,260 334,272 332,288 C330,304 335,320 346,330 C355,338 370,340 378,334 L375,265 Z"/>
<!-- right half cracking open -->
<path class="s w15" d="M445,268 C458,260 466,272 468,288 C470,304 465,320 454,330 C445,338 430,340 422,334 L425,265 Z"/>
<!-- crack gap -->
<path class="s w1" d="M376,265 C379,272 381,282 380,295 C379,308 377,320 378,332"/>
<path class="s w1" d="M424,265 C421,272 419,282 420,295 C421,308 423,320 422,332"/>
<!-- seed texture fibres -->
<path class="s w1" d="M340,278 C348,275 356,277 362,280"/>
<path class="s w1" d="M337,292 C346,289 356,291 363,295"/>
<path class="s w1" d="M338,306 C347,303 357,305 364,309"/>
<path class="s w1" d="M440,278 C448,275 458,277 462,280"/>
<path class="s w1" d="M437,292 C446,289 456,291 462,295"/>
<path class="s w1" d="M438,306 C447,303 457,305 462,309"/>

<!-- ROOT emerging downward — taproot with root hairs -->
<path class="s w2" d="M399,333 C396,352 392,372 394,396 C396,418 388,440 390,465 C392,488 386,508 388,528"/>
<!-- lateral root hairs -->
<path class="s w1" d="M392,358 C382,354 374,358 370,364"/>
<path class="s w1" d="M395,378 C384,373 375,376 370,382"/>
<path class="s w1" d="M392,400 C381,396 372,399 367,406"/>
<path class="s w1" d="M394,425 C383,420 374,424 369,431"/>
<path class="s w1" d="M391,448 C380,443 371,447 366,454"/>
<path class="s w1" d="M388,472 C377,467 368,471 363,478"/>
<path class="s w1" d="M393,360 C403,356 411,360 415,366"/>
<path class="s w1" d="M396,382 C406,377 415,381 420,387"/>
<path class="s w1" d="M394,404 C404,399 413,403 418,410"/>
<path class="s w1" d="M396,428 C406,423 415,427 420,434"/>
<path class="s w1" d="M390,452 C400,447 409,451 414,458"/>
<path class="s w1" d="M389,476 C399,471 408,475 413,482"/>

<!-- SPROUT curving upward -->
<path class="s w2" d="M399,268 C396,250 390,232 386,212 C382,194 385,176 390,158 C394,142 402,128 400,112"/>
<!-- tiny embryonic leaf -->
<path class="s w15" d="M388,195 C374,184 364,172 362,160 C366,172 376,182 388,190"/>
<path class="s w1" d="M375,176 C372,170 371,165 374,162"/>
<!-- dewdrops -->
<circle class="s w1" cx="385" cy="178" r="3.5"/>
<circle class="s w1" cx="390" cy="155" r="2.5"/>
<circle class="s w1" cx="396" cy="136" r="2"/>
<path class="s w1" d="M383,178 C381,175 381,173 383,172"/>
<path class="s w1" d="M388,155 C386,152 386,150 388,149"/>

<!-- ══════════════════════════════════════════════════
     STAGE 2 — SAPLING  y≈530–820
══════════════════════════════════════════════════ -->
<text font-size="20" text-anchor="middle" x="400" y="560">మొక్క</text>
<text font-size="10" text-anchor="middle" x="400" y="576" font-family="Georgia,serif" opacity="0.5" letter-spacing="2">SAPLING</text>

<!-- soil -->
<path class="s w15" d="M130,720 C200,714 280,718 360,716 C420,715 480,717 560,715 C620,714 680,717 730,714"/>
<path class="s w1" opacity="0.5" d="M145,732 C180,729 215,733 240,731"/>
<path class="s w1" opacity="0.5" d="M290,736 C330,733 365,737 390,735"/>
<path class="s w1" opacity="0.5" d="M445,730 C480,727 515,731 540,729"/>
<path class="s w1" opacity="0.5" d="M590,734 C625,731 658,735 682,733"/>

<!-- stem — slight organic curve -->
<path class="s w2" d="M400,718 C397,695 402,672 398,648 C395,626 403,604 399,580 C396,558 402,536 399,516 C397,498 401,480 398,462"/>

<!-- Leaf 1 — right, lance-shaped, proper botanical curve -->
<path class="s w15" d="M401,652 C415,638 434,626 450,618 C464,612 476,610 480,605 C474,610 462,616 448,624 C432,634 414,645 402,654"/>
<path class="s w1" d="M402,652 C420,638 450,622 479,607"/>
<!-- veins -->
<path class="s w1" d="M412,645 C420,638 430,633"/>
<path class="s w1" d="M422,639 C432,631 442,625"/>
<path class="s w1" d="M435,631 C443,624 452,619"/>
<path class="s w1" d="M448,622 C455,617 462,613"/>

<!-- Leaf 2 — left -->
<path class="s w15" d="M399,662 C385,647 366,635 350,626 C336,619 324,617 320,611 C326,617 338,622 354,630 C371,640 389,654 400,664"/>
<path class="s w1" d="M399,661 C381,647 350,630 321,613"/>
<path class="s w1" d="M388,653 C378,645 368,639"/>
<path class="s w1" d="M376,646 C366,638 355,632"/>
<path class="s w1" d="M364,639 C354,631 344,625"/>
<path class="s w1" d="M351,631 C343,624 336,619"/>

<!-- Leaf 3 — right upper -->
<path class="s w15" d="M400,600 C414,586 432,574 448,566 C461,560 472,558 476,553 C470,558 459,564 446,572 C430,582 413,594 401,601"/>
<path class="s w1" d="M401,599 C418,585 448,569 476,555"/>
<path class="s w1" d="M411,592 C420,584 430,578"/>
<path class="s w1" d="M424,583 C433,576 443,570"/>
<path class="s w1" d="M438,574 C446,568 454,563"/>

<!-- Leaf 4 — left upper -->
<path class="s w15" d="M399,608 C385,594 366,582 350,573 C337,566 326,564 322,559 C328,564 339,569 355,577 C372,587 390,601 400,609"/>
<path class="s w1" d="M399,607 C382,593 351,576 323,561"/>
<path class="s w1" d="M387,599 C378,591 368,585"/>
<path class="s w1" d="M375,592 C365,584 354,578"/>
<path class="s w1" d="M362,584 C353,577 343,571"/>

<!-- apical bud tip -->
<path class="s w15" d="M398,466 C392,452 390,438 393,426 C400,420 407,426 410,438 C413,450 406,462 398,466"/>
<path class="s w1" d="M399,460 C396,450 397,442 400,436"/>

<!-- roots -->
<path class="s w15" d="M399,718 C394,740 388,762 390,784"/>
<path class="s w15" d="M401,718 C406,740 412,762 410,784"/>
<path class="s w15" d="M397,726 C385,748 374,772 376,794"/>
<path class="s w15" d="M403,726 C415,748 426,772 424,794"/>
<path class="s w1" d="M388,764 C378,760 370,764 366,772"/>
<path class="s w1" d="M412,766 C422,762 430,766 434,774"/>
<path class="s w1" d="M376,776 C366,772 358,776 354,784"/>
<path class="s w1" d="M424,778 C434,774 442,778 446,786"/>

<!-- ══════════════════════════════════════════════════
     STAGE 3 — TREE  y≈850–1280
══════════════════════════════════════════════════ -->
<text font-size="20" text-anchor="middle" x="400" y="878">చెట్టు</text>
<text font-size="10" text-anchor="middle" x="400" y="894" font-family="Georgia,serif" opacity="0.5" letter-spacing="2">TREE</text>

<!-- soil -->
<path class="s w15" d="M60,1090 C150,1084 260,1088 360,1086 C420,1085 480,1087 560,1085 C650,1083 720,1086 760,1084"/>
<path class="s w1" opacity="0.45" d="M80,1102 C120,1099 160,1103 190,1101"/>
<path class="s w1" opacity="0.45" d="M250,1108 C295,1105 335,1109 365,1107"/>
<path class="s w1" opacity="0.45" d="M430,1100 C470,1097 510,1101 540,1099"/>
<path class="s w1" opacity="0.45" d="M600,1106 C640,1103 675,1107 705,1105"/>

<!-- TRUNK — tapered, textured -->
<path class="s w3" d="M386,1088 C382,1058 380,1028 380,998 C380,968 382,938 380,908 C378,878 382,850 380,822 C379,806 380,888 382,908"/>
<path class="s w3" d="M414,1088 C418,1058 420,1028 420,998 C420,968 418,938 420,908 C422,878 418,850 420,822 C421,806 420,888 418,908"/>
<!-- trunk texture — curved fissure lines -->
<path class="s w1" d="M388,1060 C394,1056 402,1058 408,1062 C402,1058 394,1056 388,1060"/>
<path class="s w1" d="M387,1038 C393,1034 401,1036 407,1040"/>
<path class="s w1" d="M386,1016 C392,1012 400,1014 406,1018"/>
<path class="s w1" d="M385,994 C391,990 399,992 406,996"/>
<path class="s w1" d="M384,972 C390,968 398,970 405,974"/>
<path class="s w1" d="M383,950 C389,946 397,948 404,952"/>
<path class="s w1" d="M383,928 C389,924 397,926 404,930"/>
<path class="s w1" d="M383,906 C389,902 397,904 404,908"/>
<path class="s w1" d="M384,886 C390,882 398,884 405,888"/>
<!-- vertical grain -->
<path class="s w1" d="M393,826 C390,868 391,910 392,952 C393,994 391,1036 392,1086"/>
<path class="s w1" d="M407,826 C410,868 409,910 408,952 C407,994 409,1036 408,1086"/>

<!-- MAJOR LEFT BRANCH -->
<path class="s w3" d="M384,940 C360,926 330,912 298,900 C268,888 238,878 208,868"/>
<path class="s w2" d="M298,902 C272,890 245,880 218,872 C194,864 172,858 150,852"/>
<path class="s w15" d="M218,874 C198,862 178,854 158,848 C140,842 122,838 105,834"/>
<!-- left branch sub-branches going upward -->
<path class="s w2" d="M270,892 C260,872 254,852 252,830 C250,810 254,792 256,774"/>
<path class="s w15" d="M218,874 C208,852 202,830 202,808 C202,788 206,768 210,750"/>
<path class="s w15" d="M160,850 C150,828 144,806 144,784 C144,764 148,744 152,726"/>
<path class="s w1" d="M256,774 C248,760 244,746 244,732 C245,720 248,708 250,696"/>
<path class="s w1" d="M210,750 C202,736 198,722 198,708 C199,696 202,684 204,672"/>
<path class="s w1" d="M152,726 C144,712 140,698 140,684 C141,672 144,660 146,648"/>

<!-- MAJOR RIGHT BRANCH -->
<path class="s w3" d="M416,940 C440,926 470,912 502,900 C532,888 562,878 592,868"/>
<path class="s w2" d="M502,902 C528,890 555,880 582,872 C606,864 628,858 650,852"/>
<path class="s w15" d="M582,874 C602,862 622,854 642,848 C660,842 678,838 695,834"/>
<!-- right branch sub-branches -->
<path class="s w2" d="M530,892 C540,872 546,852 548,830 C550,810 546,792 544,774"/>
<path class="s w15" d="M582,874 C592,852 598,830 598,808 C598,788 594,768 590,750"/>
<path class="s w15" d="M640,850 C650,828 656,806 656,784 C656,764 652,744 648,726"/>
<path class="s w1" d="M544,774 C552,760 556,746 556,732 C555,720 552,708 550,696"/>
<path class="s w1" d="M590,750 C598,736 602,722 602,708 C601,696 598,684 596,672"/>
<path class="s w1" d="M648,726 C656,712 660,698 660,684 C659,672 656,660 654,648"/>

<!-- UPPER CENTRAL BRANCH -->
<path class="s w2" d="M400,870 C396,848 393,826 394,804 C395,784 398,764 398,744"/>
<path class="s w15" d="M394,812 C380,796 364,782 348,770 C334,760 320,752 308,744"/>
<path class="s w15" d="M396,812 C412,796 428,782 444,770 C458,760 472,752 484,744"/>
<path class="s w1" d="M308,744 C294,732 282,720 272,708"/>
<path class="s w1" d="M484,744 C498,732 510,720 520,708"/>
<path class="s w1" d="M396,762 C386,748 376,734 366,720"/>
<path class="s w1" d="M398,762 C408,748 418,734 428,720"/>

<!-- CANOPY LEAVES — proper lance shapes using cubic bezier -->
<!-- macro: leaf center, tip offset, width -->
<!-- Left cluster leaves -->
<path class="s w1" d="M150,852 C136,840 126,826 122,812 C126,824 136,838 150,848"/>
<path class="s w1" d="M148,854 C132,848 120,838 114,824 C120,836 132,846 148,852"/>
<path class="s w1" d="M158,848 C142,836 130,820 126,804 C130,818 142,834 158,846"/>
<path class="s w1" d="M170,856 C154,846 142,832 138,816 C142,830 154,844 170,854"/>
<path class="s w1" d="M210,750 C194,738 184,722 180,706 C184,720 194,736 210,748"/>
<path class="s w1" d="M208,752 C190,746 178,734 172,718 C178,732 190,744 208,750"/>
<path class="s w1" d="M220,758 C204,748 194,734 190,718 C194,732 204,746 220,756"/>
<path class="s w1" d="M256,774 C240,762 230,746 226,730 C230,744 240,760 256,772"/>
<path class="s w1" d="M254,776 C236,770 224,758 218,742 C224,756 236,768 254,774"/>
<path class="s w1" d="M270,782 C254,772 244,758 240,742 C244,756 254,770 270,780"/>

<!-- proper lance leaf helper — repeated for right cluster -->
<path class="s w1" d="M650,852 C664,840 674,826 678,812 C674,824 664,838 650,848"/>
<path class="s w1" d="M652,854 C668,848 680,838 686,824 C680,836 668,846 652,852"/>
<path class="s w1" d="M642,848 C658,836 670,820 674,804 C670,818 658,834 642,846"/>
<path class="s w1" d="M630,856 C646,846 658,832 662,816 C658,830 646,844 630,854"/>
<path class="s w1" d="M590,750 C606,738 616,722 620,706 C616,720 606,736 590,748"/>
<path class="s w1" d="M592,752 C610,746 622,734 628,718 C622,732 610,744 592,750"/>
<path class="s w1" d="M580,758 C596,748 606,734 610,718 C606,732 596,746 580,756"/>
<path class="s w1" d="M544,774 C560,762 570,746 574,730 C570,744 560,760 544,772"/>
<path class="s w1" d="M546,776 C564,770 576,758 582,742 C576,756 564,768 546,774"/>
<path class="s w1" d="M530,782 C546,772 556,758 560,742 C556,756 546,770 530,780"/>

<!-- upper canopy leaves -->
<path class="s w1" d="M308,744 C292,732 282,716 278,700 C282,714 292,730 308,742"/>
<path class="s w1" d="M310,746 C296,736 286,722 282,706 C286,720 296,734 310,744"/>
<path class="s w1" d="M484,744 C500,732 510,716 514,700 C510,714 500,730 484,742"/>
<path class="s w1" d="M482,746 C496,736 506,722 510,706 C506,720 496,734 482,744"/>
<path class="s w1" d="M366,720 C350,708 340,692 336,676 C340,690 350,706 366,718"/>
<path class="s w1" d="M368,722 C354,712 344,698 340,682 C344,696 354,710 368,720"/>
<path class="s w1" d="M428,720 C444,708 454,692 458,676 C454,690 444,706 428,718"/>
<path class="s w1" d="M426,722 C440,712 450,698 454,682 C450,696 440,710 426,720"/>

<!-- ROOT SYSTEM — spreading organic roots -->
<path class="s w2" d="M388,1088 C380,1115 370,1142 368,1168 C366,1192 370,1215 368,1235"/>
<path class="s w2" d="M412,1088 C420,1115 430,1142 432,1168 C434,1192 430,1215 432,1235"/>
<path class="s w15" d="M394,1098 C376,1124 358,1152 352,1178 C346,1202 350,1222 348,1240"/>
<path class="s w15" d="M406,1098 C424,1124 442,1152 448,1178 C454,1202 450,1222 452,1240"/>
<path class="s w15" d="M390,1108 C364,1138 340,1168 330,1194 C322,1218 326,1238 324,1258"/>
<path class="s w15" d="M410,1108 C436,1138 460,1168 470,1194 C478,1218 474,1238 476,1258"/>
<!-- root hair details -->
<path class="s w1" d="M368,1148 C358,1144 350,1148 346,1156"/>
<path class="s w1" d="M432,1150 C442,1146 450,1150 454,1158"/>
<path class="s w1" d="M350,1182 C340,1178 332,1182 328,1190"/>
<path class="s w1" d="M452,1184 C462,1180 470,1184 474,1192"/>
<path class="s w1" d="M326,1220 C316,1216 308,1220 304,1228"/>
<path class="s w1" d="M476,1222 C486,1218 494,1222 498,1230"/>

<!-- ══════════════════════════════════════════════════
     STAGE 4 — FLOWERING  y≈1300–1680
══════════════════════════════════════════════════ -->
<text font-size="20" text-anchor="middle" x="400" y="1328">పుష్పం</text>
<text font-size="10" text-anchor="middle" x="400" y="1344" font-family="Georgia,serif" opacity="0.5" letter-spacing="2">FLOWER</text>

<!-- Three panicle-bearing branches -->
<!-- Center panicle main stem -->
<path class="s w2" d="M400,1370 C398,1388 396,1406 397,1424 C398,1442 396,1460 398,1478"/>
<!-- panicle laterals -->
<path class="s w1" d="M397,1400 C380,1392 362,1386 345,1382 C330,1378 316,1378 305,1376"/>
<path class="s w1" d="M397,1415 C378,1407 358,1400 340,1396 C324,1392 310,1392 298,1390"/>
<path class="s w1" d="M398,1430 C380,1422 360,1416 342,1412 C326,1408 312,1408 300,1406"/>
<path class="s w1" d="M397,1400 C414,1392 432,1386 449,1382 C464,1378 478,1378 489,1376"/>
<path class="s w1" d="M397,1415 C416,1407 436,1400 454,1396 C470,1392 484,1392 496,1390"/>
<path class="s w1" d="M398,1430 C416,1422 436,1416 454,1412 C470,1408 484,1408 496,1406"/>
<!-- sub-laterals -->
<path class="s w1" d="M345,1383 C332,1378 320,1376 310,1375"/>
<path class="s w1" d="M340,1397 C325,1393 312,1391 302,1390"/>
<path class="s w1" d="M449,1383 C462,1378 474,1376 484,1375"/>
<path class="s w1" d="M454,1397 C469,1393 482,1391 492,1390"/>

<!-- Left panicle branch -->
<path class="s w2" d="M200,1370 C198,1388 196,1406 197,1424 C198,1442 196,1460 198,1475"/>
<path class="s w1" d="M197,1400 C180,1392 162,1386 145,1382"/>
<path class="s w1" d="M197,1415 C178,1407 158,1400 140,1396"/>
<path class="s w1" d="M197,1400 C214,1392 232,1386 249,1382"/>
<path class="s w1" d="M197,1415 C216,1407 236,1400 254,1396"/>

<!-- Right panicle branch -->
<path class="s w2" d="M600,1370 C598,1388 596,1406 597,1424 C598,1442 596,1460 598,1475"/>
<path class="s w1" d="M597,1400 C580,1392 562,1386 545,1382"/>
<path class="s w1" d="M597,1415 C578,1407 558,1400 540,1396"/>
<path class="s w1" d="M597,1400 C614,1392 632,1386 649,1382"/>
<path class="s w1" d="M597,1415 C616,1407 636,1400 654,1396"/>

<!-- FLOWERS — clean 5-petal shape using smooth paths -->
<!-- reusable flower macro via groups -->
<!-- Center panicle flowers -->
<g>
  <!-- petal = almond shape: M tip C ctrl tip base C ctrl tip tip -->
  <!-- flower at 305,1374 -->
  <path class="s w1" d="M305,1368 C308,1362 312,1360 312,1368 C312,1376 308,1378 305,1374 Z"/>
  <path class="s w1" d="M311,1371 C317,1368 319,1364 313,1364 C307,1364 305,1368 311,1371 Z"/>
  <path class="s w1" d="M311,1377 C317,1380 319,1384 313,1384 C307,1384 305,1380 311,1377 Z"/>
  <path class="s w1" d="M305,1380 C308,1386 312,1388 312,1380 C312,1372 308,1374 305,1374 Z"/>
  <path class="s w1" d="M299,1377 C293,1380 291,1384 297,1384 C303,1384 305,1380 299,1377 Z"/>
  <circle class="s w1" cx="305" cy="1374" r="2.5"/>

  <!-- flower at 330,1378 -->
  <path class="s w1" d="M330,1372 C333,1366 337,1364 337,1372 C337,1380 333,1382 330,1378 Z"/>
  <path class="s w1" d="M336,1375 C342,1372 344,1368 338,1368 C332,1368 330,1372 336,1375 Z"/>
  <path class="s w1" d="M336,1381 C342,1384 344,1388 338,1388 C332,1388 330,1384 336,1381 Z"/>
  <path class="s w1" d="M330,1384 C333,1390 337,1392 337,1384 C337,1376 333,1378 330,1378 Z"/>
  <path class="s w1" d="M324,1381 C318,1384 316,1388 322,1388 C328,1388 330,1384 324,1381 Z"/>
  <circle class="s w1" cx="330" cy="1378" r="2.5"/>

  <!-- flower at 358,1384 -->
  <path class="s w1" d="M358,1378 C361,1372 365,1370 365,1378 C365,1386 361,1388 358,1384 Z"/>
  <path class="s w1" d="M364,1381 C370,1378 372,1374 366,1374 C360,1374 358,1378 364,1381 Z"/>
  <path class="s w1" d="M364,1387 C370,1390 372,1394 366,1394 C360,1394 358,1390 364,1387 Z"/>
  <path class="s w1" d="M358,1390 C361,1396 365,1398 365,1390 C365,1382 361,1384 358,1384 Z"/>
  <path class="s w1" d="M352,1387 C346,1390 344,1394 350,1394 C356,1394 358,1390 352,1387 Z"/>
  <circle class="s w1" cx="358" cy="1384" r="2.5"/>

  <!-- flower at 442,1384 -->
  <path class="s w1" d="M442,1378 C445,1372 449,1370 449,1378 C449,1386 445,1388 442,1384 Z"/>
  <path class="s w1" d="M448,1381 C454,1378 456,1374 450,1374 C444,1374 442,1378 448,1381 Z"/>
  <path class="s w1" d="M448,1387 C454,1390 456,1394 450,1394 C444,1394 442,1390 448,1387 Z"/>
  <path class="s w1" d="M442,1390 C445,1396 449,1398 449,1390 C449,1382 445,1384 442,1384 Z"/>
  <path class="s w1" d="M436,1387 C430,1390 428,1394 434,1394 C440,1394 442,1390 436,1387 Z"/>
  <circle class="s w1" cx="442" cy="1384" r="2.5"/>

  <!-- flower at 470,1378 -->
  <path class="s w1" d="M470,1372 C473,1366 477,1364 477,1372 C477,1380 473,1382 470,1378 Z"/>
  <path class="s w1" d="M476,1375 C482,1372 484,1368 478,1368 C472,1368 470,1372 476,1375 Z"/>
  <path class="s w1" d="M476,1381 C482,1384 484,1388 478,1388 C472,1388 470,1384 476,1381 Z"/>
  <path class="s w1" d="M470,1384 C473,1390 477,1392 477,1384 C477,1376 473,1378 470,1378 Z"/>
  <path class="s w1" d="M464,1381 C458,1384 456,1388 462,1388 C468,1388 470,1384 464,1381 Z"/>
  <circle class="s w1" cx="470" cy="1378" r="2.5"/>

  <!-- flower at 495,1374 -->
  <path class="s w1" d="M495,1368 C498,1362 502,1360 502,1368 C502,1376 498,1378 495,1374 Z"/>
  <path class="s w1" d="M501,1371 C507,1368 509,1364 503,1364 C497,1364 495,1368 501,1371 Z"/>
  <path class="s w1" d="M501,1377 C507,1380 509,1384 503,1384 C497,1384 495,1380 501,1377 Z"/>
  <path class="s w1" d="M495,1380 C498,1386 502,1388 502,1380 C502,1372 498,1374 495,1374 Z"/>
  <path class="s w1" d="M489,1377 C483,1380 481,1384 487,1384 C493,1384 495,1380 489,1377 Z"/>
  <circle class="s w1" cx="495" cy="1374" r="2.5"/>

  <!-- a few more scattered flowers -->
  <path class="s w1" d="M390,1480 C393,1474 397,1472 397,1480 C397,1488 393,1490 390,1486 Z"/>
  <path class="s w1" d="M396,1483 C402,1480 404,1476 398,1476 C392,1476 390,1480 396,1483 Z"/>
  <path class="s w1" d="M396,1489 C402,1492 404,1496 398,1496 C392,1496 390,1492 396,1489 Z"/>
  <path class="s w1" d="M390,1492 C393,1498 397,1500 397,1492 C397,1484 393,1486 390,1486 Z"/>
  <path class="s w1" d="M384,1489 C378,1492 376,1496 382,1496 C388,1496 390,1492 384,1489 Z"/>
  <circle class="s w1" cx="390" cy="1486" r="2.5"/>

  <path class="s w1" d="M412,1478 C415,1472 419,1470 419,1478 C419,1486 415,1488 412,1484 Z"/>
  <path class="s w1" d="M418,1481 C424,1478 426,1474 420,1474 C414,1474 412,1478 418,1481 Z"/>
  <path class="s w1" d="M418,1487 C424,1490 426,1494 420,1494 C414,1494 412,1490 418,1487 Z"/>
  <path class="s w1" d="M412,1490 C415,1496 419,1498 419,1490 C419,1482 415,1484 412,1484 Z"/>
  <path class="s w1" d="M406,1487 C400,1490 398,1494 404,1494 C410,1494 412,1490 406,1487 Z"/>
  <circle class="s w1" cx="412" cy="1484" r="2.5"/>
</g>

<!-- leaves framing panicle branches -->
<path class="s w1" d="M200,1366 C186,1354 176,1338 172,1322 C176,1336 186,1352 200,1364"/>
<path class="s w1" d="M200,1368 C184,1362 172,1350 166,1334 C172,1348 184,1360 200,1366"/>
<path class="s w1" d="M600,1366 C614,1354 624,1338 628,1322 C624,1336 614,1352 600,1364"/>
<path class="s w1" d="M600,1368 C616,1362 628,1350 634,1334 C628,1348 616,1360 600,1366"/>
<path class="s w1" d="M400,1366 C386,1354 376,1338 372,1322 C376,1336 386,1352 400,1364"/>
<path class="s w1" d="M400,1366 C414,1354 424,1338 428,1322 C424,1336 414,1352 400,1364"/>

<!-- LEFT branch panicle flowers -->
<path class="s w1" d="M145,1380 C148,1374 152,1372 152,1380 C152,1388 148,1390 145,1386 Z"/>
<path class="s w1" d="M151,1383 C157,1380 159,1376 153,1376 C147,1376 145,1380 151,1383 Z"/>
<path class="s w1" d="M151,1389 C157,1392 159,1396 153,1396 C147,1396 145,1392 151,1389 Z"/>
<path class="s w1" d="M145,1392 C148,1398 152,1400 152,1392 C152,1384 148,1386 145,1386 Z"/>
<path class="s w1" d="M139,1389 C133,1392 131,1396 137,1396 C143,1396 145,1392 139,1389 Z"/>
<circle class="s w1" cx="145" cy="1386" r="2.5"/>

<path class="s w1" d="M249,1380 C252,1374 256,1372 256,1380 C256,1388 252,1390 249,1386 Z"/>
<path class="s w1" d="M255,1383 C261,1380 263,1376 257,1376 C251,1376 249,1380 255,1383 Z"/>
<path class="s w1" d="M255,1389 C261,1392 263,1396 257,1396 C251,1396 249,1392 255,1389 Z"/>
<path class="s w1" d="M249,1392 C252,1398 256,1400 256,1392 C256,1384 252,1386 249,1386 Z"/>
<path class="s w1" d="M243,1389 C237,1392 235,1396 241,1396 C247,1396 249,1392 243,1389 Z"/>
<circle class="s w1" cx="249" cy="1386" r="2.5"/>

<!-- Right branch panicle flowers -->
<path class="s w1" d="M545,1380 C548,1374 552,1372 552,1380 C552,1388 548,1390 545,1386 Z"/>
<path class="s w1" d="M551,1383 C557,1380 559,1376 553,1376 C547,1376 545,1380 551,1383 Z"/>
<path class="s w1" d="M551,1389 C557,1392 559,1396 553,1396 C547,1396 545,1392 551,1389 Z"/>
<path class="s w1" d="M545,1392 C548,1398 552,1400 552,1392 C552,1384 548,1386 545,1386 Z"/>
<path class="s w1" d="M539,1389 C533,1392 531,1396 537,1396 C543,1396 545,1392 539,1389 Z"/>
<circle class="s w1" cx="545" cy="1386" r="2.5"/>

<!-- BEES — clean stylized form -->
<!-- Bee 1 — left -->
<g transform="translate(285,1354)">
  <path class="s w1" d="M-10,0 C-10,-6 -4,-9 0,-9 C4,-9 10,-6 10,0 C10,6 4,9 0,9 C-4,9 -10,6 -10,0"/>
  <path class="s w1" d="M-3,-4 C-3,-10 3,-10 3,-4"/>
  <path class="s w1" d="M-3,4 C-3,10 3,10 3,4"/>
  <path class="s w1" d="M-6,-1 C-12,-4 -14,-2 -12,0"/>
  <path class="s w1" d="M-6,1 C-12,4 -14,2 -12,0"/>
  <path class="s w1" d="M6,-1 C12,-4 14,-2 12,0"/>
  <path class="s w1" d="M6,1 C12,4 14,2 12,0"/>
  <path class="s w1" d="M-5,0 L5,0 M-3,-5 L-3,5 M3,-5 L3,5" opacity="0.4"/>
</g>
<!-- Bee 2 — right -->
<g transform="translate(515,1350) scale(-1,1)">
  <path class="s w1" d="M-10,0 C-10,-6 -4,-9 0,-9 C4,-9 10,-6 10,0 C10,6 4,9 0,9 C-4,9 -10,6 -10,0"/>
  <path class="s w1" d="M-3,-4 C-3,-10 3,-10 3,-4"/>
  <path class="s w1" d="M-3,4 C-3,10 3,10 3,4"/>
  <path class="s w1" d="M-6,-1 C-12,-4 -14,-2 -12,0"/>
  <path class="s w1" d="M-6,1 C-12,4 -14,2 -12,0"/>
  <path class="s w1" d="M6,-1 C12,-4 14,-2 12,0"/>
  <path class="s w1" d="M6,1 C12,4 14,2 12,0"/>
</g>
<!-- Bee 3 — center low, hovering -->
<g transform="translate(400,1530) rotate(-10)">
  <path class="s w1" d="M-10,0 C-10,-6 -4,-9 0,-9 C4,-9 10,-6 10,0 C10,6 4,9 0,9 C-4,9 -10,6 -10,0"/>
  <path class="s w1" d="M-3,-4 C-3,-10 3,-10 3,-4"/>
  <path class="s w1" d="M-3,4 C-3,10 3,10 3,4"/>
  <path class="s w1" d="M-6,-1 C-12,-4 -14,-2 -12,0"/>
  <path class="s w1" d="M-6,1 C-12,4 -14,2 -12,0"/>
  <path class="s w1" d="M6,-1 C12,-4 14,-2 12,0"/>
  <path class="s w1" d="M6,1 C12,4 14,2 12,0"/>
</g>

<!-- ══════════════════════════════════════════════════
     STAGE 5 — FRUIT FORMING  y≈1700–2100
══════════════════════════════════════════════════ -->
<text font-size="20" text-anchor="middle" x="400" y="1728">పిందె</text>
<text font-size="10" text-anchor="middle" x="400" y="1744" font-family="Georgia,serif" opacity="0.5" letter-spacing="2">RAW FRUIT</text>

<!-- Main branches -->
<path class="s w3" d="M400,1770 C376,1784 348,1800 320,1814 C294,1828 268,1840 245,1850"/>
<path class="s w3" d="M400,1770 C424,1784 452,1800 480,1814 C506,1828 532,1840 555,1850"/>
<path class="s w2" d="M320,1816 C298,1832 276,1850 258,1866 C242,1882 230,1896 224,1910"/>
<path class="s w2" d="M480,1816 C502,1832 524,1850 542,1866 C558,1882 570,1896 576,1910"/>

<!-- YOUNG MANGO — proper teardrop cubic bezier shape -->
<!-- Cluster left — 3 small mangoes -->
<!-- Mango L1 -->
<path class="s w15" d="M240,1900 C226,1910 218,1928 218,1950 C218,1972 226,1992 240,2004 C254,2016 272,2018 284,2008 C296,1998 302,1978 300,1956 C298,1934 288,1912 274,1904 C262,1896 248,1894 240,1900"/>
<path class="s w1" d="M222,1920 C232,1916 242,1918 250,1924"/>
<path class="s w1" d="M219,1938 C230,1934 242,1936 252,1942"/>
<path class="s w1" d="M219,1956 C230,1952 244,1954 256,1960"/>
<path class="s w1" d="M222,1974 C232,1970 246,1972 258,1978"/>
<path class="s w1" d="M230,1990 C240,1986 252,1988 263,1994"/>
<!-- stem -->
<path class="s w1" d="M260,1898 C262,1886 265,1876 268,1866"/>
<!-- Mango L2 -->
<path class="s w15" d="M278,1878 C264,1888 256,1906 256,1928 C256,1950 264,1970 278,1982 C292,1994 310,1996 322,1986 C334,1976 340,1956 338,1934 C336,1912 326,1890 312,1882 C300,1874 286,1872 278,1878"/>
<path class="s w1" d="M260,1898 C270,1894 280,1896 288,1902"/>
<path class="s w1" d="M257,1916 C268,1912 280,1914 290,1920"/>
<path class="s w1" d="M257,1934 C268,1930 282,1932 294,1938"/>
<path class="s w1" d="M260,1952 C270,1948 284,1950 296,1956"/>
<path class="s w1" d="M268,1968 C278,1964 290,1966 302,1972"/>
<!-- stem -->
<path class="s w1" d="M298,1876 C300,1864 303,1854 306,1844"/>
<!-- Mango L3 -->
<path class="s w15" d="M216,1878 C202,1888 194,1906 194,1928 C194,1950 202,1970 216,1982 C230,1994 248,1996 260,1986 C272,1976 278,1956 276,1934 C274,1912 264,1890 250,1882 C238,1874 224,1872 216,1878"/>
<path class="s w1" d="M198,1898 C208,1894 218,1896 226,1902"/>
<path class="s w1" d="M195,1916 C206,1912 218,1914 228,1920"/>
<path class="s w1" d="M242,1876 C244,1864 247,1854 250,1844"/>

<!-- Cluster right — 3 small mangoes -->
<path class="s w15" d="M560,1900 C574,1910 582,1928 582,1950 C582,1972 574,1992 560,2004 C546,2016 528,2018 516,2008 C504,1998 498,1978 500,1956 C502,1934 512,1912 526,1904 C538,1896 552,1894 560,1900"/>
<path class="s w1" d="M578,1920 C568,1916 558,1918 550,1924"/>
<path class="s w1" d="M581,1938 C570,1934 558,1936 548,1942"/>
<path class="s w1" d="M581,1956 C570,1952 556,1954 544,1960"/>
<path class="s w1" d="M578,1974 C568,1970 554,1972 542,1978"/>
<path class="s w1" d="M540,1898 C538,1886 535,1876 532,1866"/>

<path class="s w15" d="M522,1878 C536,1888 544,1906 544,1928 C544,1950 536,1970 522,1982 C508,1994 490,1996 478,1986 C466,1976 460,1956 462,1934 C464,1912 474,1890 488,1882 C500,1874 514,1872 522,1878"/>
<path class="s w1" d="M540,1898 C530,1894 520,1896 512,1902"/>
<path class="s w1" d="M543,1916 C532,1912 520,1914 510,1920"/>
<path class="s w1" d="M543,1934 C532,1930 518,1932 506,1938"/>
<path class="s w1" d="M502,1876 C500,1864 497,1854 494,1844"/>

<!-- Cross-section mango bottom left -->
<path class="s w15" d="M120,1940 C106,1952 98,1972 98,1996 C98,2020 106,2042 122,2056 C138,2068 158,2070 172,2058 C186,2046 192,2024 190,2000 C188,1976 176,1954 160,1944 C148,1936 132,1934 120,1940"/>
<!-- vertical cut line -->
<path class="s w1" d="M96,1996 C118,1990 142,1988 168,1992 C180,1994 188,1998 190,2000"/>
<!-- seed inside outline -->
<path class="s w1" d="M130,1990 C134,1980 142,1975 150,1977 C158,1979 164,1988 164,2000 C164,2012 158,2022 150,2025 C142,2027 134,2022 130,2014 C126,2006 126,1998 130,1990"/>
<!-- flesh texture lines -->
<path class="s w1" d="M102,1960 C112,1956 124,1958 132,1964"/>
<path class="s w1" d="M100,1976 C110,1972 124,1974 134,1980"/>
<path class="s w1" d="M172,1958 C164,1954 154,1956 146,1962"/>
<path class="s w1" d="M176,1974 C167,1970 155,1972 145,1978"/>
<path class="s w1" d="M180,1994 C174,1990 164,1988 156,1990"/>
<!-- cross-section stem -->
<path class="s w1" d="M145,1932 C147,1920 150,1908 152,1898 C154,1888 158,1880 162,1872"/>
<!-- leaf on cross-section -->
<path class="s w1" d="M154,1908 C168,1896 182,1888 194,1884 C180,1888 166,1898 155,1910"/>
<path class="s w1" d="M162,1900 C172,1892 183,1887"/>

<!-- leaves on branches -->
<path class="s w1" d="M245,1852 C229,1840 218,1824 214,1806 C218,1822 229,1838 245,1850"/>
<path class="s w1" d="M246,1854 C228,1848 216,1836 210,1818 C216,1834 228,1846 246,1852"/>
<path class="s w1" d="M555,1852 C571,1840 582,1824 586,1806 C582,1822 571,1838 555,1850"/>
<path class="s w1" d="M554,1854 C572,1848 584,1836 590,1818 C584,1834 572,1846 554,1852"/>

<!-- ══════════════════════════════════════════════════
     STAGE 6 — RIPENING  y≈2130–2560
══════════════════════════════════════════════════ -->
<text font-size="20" text-anchor="middle" x="400" y="2158">పక్వం</text>
<text font-size="10" text-anchor="middle" x="400" y="2174" font-family="Georgia,serif" opacity="0.5" letter-spacing="2">RIPENING</text>

<!-- Heavy drooping branches -->
<path class="s w3" d="M400,2200 C372,2218 340,2240 308,2260 C278,2280 250,2298 226,2315"/>
<path class="s w3" d="M400,2200 C428,2218 460,2240 492,2260 C522,2280 550,2298 574,2315"/>

<!-- RIPE MANGO LEFT — full, heavy, gorgeous teardrop -->
<path class="s w2" d="M192,2348 C174,2364 164,2390 164,2420 C164,2450 174,2478 192,2496 C210,2514 234,2520 254,2512 C274,2504 286,2484 288,2458 C290,2432 280,2404 264,2386 C250,2370 228,2360 210,2358 C202,2356 196,2350 192,2348"/>
<!-- skin texture — dense = riper, using line groups -->
<path class="s w1" d="M168,2368 C180,2363 194,2365 206,2372"/>
<path class="s w1" d="M166,2386 C178,2381 194,2383 208,2390"/>
<path class="s w1" d="M165,2404 C178,2399 196,2401 210,2408"/>
<path class="s w1" d="M165,2422 C178,2417 198,2419 212,2426"/>
<path class="s w1" d="M167,2440 C180,2435 200,2437 214,2444"/>
<path class="s w1" d="M170,2458 C183,2453 202,2455 216,2462"/>
<path class="s w1" d="M176,2476 C188,2471 205,2473 217,2480"/>
<path class="s w1" d="M186,2492 C196,2488 210,2490 221,2496"/>
<!-- right side texture -->
<path class="s w1" d="M260,2388 C251,2382 240,2384 232,2390"/>
<path class="s w1" d="M270,2406 C260,2400 248,2402 238,2408"/>
<path class="s w1" d="M278,2424 C267,2418 254,2420 243,2426"/>
<path class="s w1" d="M283,2442 C272,2436 258,2438 246,2444"/>
<path class="s w1" d="M284,2460 C273,2454 259,2456 247,2462"/>
<path class="s w1" d="M280,2478 C270,2472 256,2474 244,2480"/>
<path class="s w1" d="M270,2496 C261,2491 248,2493 238,2498"/>
<!-- "gradient" suggestion: extra dense lines toward tip/bottom -->
<path class="s w1" d="M173,2374 C183,2371 193,2373 201,2377" opacity="0.5"/>
<path class="s w1" d="M172,2392 C183,2389 194,2391 203,2395" opacity="0.5"/>
<!-- stem + attached leaf -->
<path class="s w15" d="M224,2354 C226,2338 228,2324 232,2310 C234,2298 238,2288 240,2278"/>
<path class="s w1" d="M232,2316 C246,2304 262,2296 276,2292 C262,2298 246,2306 233,2318"/>
<path class="s w1" d="M236,2303 C247,2295 260,2290"/>

<!-- RIPE MANGO RIGHT -->
<path class="s w2" d="M608,2348 C626,2364 636,2390 636,2420 C636,2450 626,2478 608,2496 C590,2514 566,2520 546,2512 C526,2504 514,2484 512,2458 C510,2432 520,2404 536,2386 C550,2370 572,2360 590,2358 C598,2356 604,2350 608,2348"/>
<path class="s w1" d="M632,2368 C620,2363 606,2365 594,2372"/>
<path class="s w1" d="M634,2386 C622,2381 606,2383 592,2390"/>
<path class="s w1" d="M635,2404 C622,2399 604,2401 590,2408"/>
<path class="s w1" d="M635,2422 C622,2417 602,2419 588,2426"/>
<path class="s w1" d="M633,2440 C620,2435 600,2437 586,2444"/>
<path class="s w1" d="M630,2458 C617,2453 598,2455 584,2462"/>
<path class="s w1" d="M624,2476 C612,2471 595,2473 583,2480"/>
<path class="s w1" d="M614,2492 C604,2488 590,2490 579,2496"/>
<path class="s w1" d="M540,2388 C549,2382 560,2384 568,2390"/>
<path class="s w1" d="M530,2406 C540,2400 552,2402 562,2408"/>
<path class="s w1" d="M522,2424 C533,2418 546,2420 557,2426"/>
<path class="s w1" d="M517,2442 C528,2436 542,2438 554,2444"/>
<path class="s w1" d="M516,2460 C527,2454 541,2456 553,2462"/>
<path class="s w1" d="M520,2478 C530,2472 544,2474 556,2480"/>
<path class="s w1" d="M530,2496 C539,2491 552,2493 562,2498"/>
<path class="s w15" d="M576,2354 C574,2338 572,2324 568,2310 C566,2298 562,2288 560,2278"/>
<path class="s w1" d="M568,2316 C554,2304 538,2296 524,2292 C538,2298 554,2306 567,2318"/>
<path class="s w1" d="M564,2303 C553,2295 540,2290"/>

<!-- CENTER MANGO — cross-section showing flesh and seed -->
<path class="s w2" d="M362,2290 C348,2308 340,2336 340,2368 C340,2400 350,2428 366,2446 C382,2464 402,2470 418,2462 C434,2454 444,2432 446,2402 C448,2372 440,2342 426,2324 C412,2306 394,2298 378,2294 C372,2292 366,2290 362,2290"/>
<!-- Halving cut line -->
<path class="s w1" d="M340,2368 C360,2362 382,2360 404,2362 C420,2364 434,2368 446,2374"/>
<!-- top half flesh texture -->
<path class="s w1" d="M344,2348 C360,2344 380,2342 400,2344 C414,2346 428,2350 440,2356"/>
<path class="s w1" d="M348,2328 C362,2324 380,2322 398,2324 C412,2326 424,2330 434,2336"/>
<path class="s w1" d="M356,2310 C368,2306 382,2304 396,2306 C408,2308 418,2312 426,2318"/>
<!-- bottom half — seed outline -->
<path class="s w15" d="M366,2378 C366,2362 374,2350 384,2348 C394,2346 404,2354 408,2370 C412,2386 410,2404 404,2416 C398,2428 388,2434 380,2432 C372,2430 366,2418 366,2404 C366,2394 366,2386 366,2378"/>
<!-- flesh texture bottom half -->
<path class="s w1" d="M344,2384 C352,2390 358,2398 360,2410"/>
<path class="s w1" d="M442,2386 C434,2392 428,2400 426,2412"/>
<path class="s w1" d="M346,2400 C354,2408 360,2418 362,2432"/>
<path class="s w1" d="M440,2402 C432,2410 426,2420 424,2434"/>
<!-- stem -->
<path class="s w15" d="M390,2288 C390,2274 392,2260 392,2246 C392,2234 392,2222 394,2210"/>

<!-- leaves framing -->
<path class="s w1" d="M226,2318 C210,2306 200,2288 198,2270 C202,2286 212,2304 227,2316"/>
<path class="s w1" d="M574,2318 C590,2306 600,2288 602,2270 C598,2286 588,2304 573,2316"/>

<!-- ══════════════════════════════════════════════════
     STAGE 7 — HARVEST  y≈2590–2960
══════════════════════════════════════════════════ -->
<text font-size="20" text-anchor="middle" x="400" y="2618">పంట</text>
<text font-size="10" text-anchor="middle" x="400" y="2634" font-family="Georgia,serif" opacity="0.5" letter-spacing="2">HARVEST</text>

<!-- Branch loaded with remaining mango -->
<path class="s w3" d="M110,2700 C200,2698 300,2702 400,2700 C500,2698 600,2702 690,2700"/>
<!-- sub-branch with mango -->
<path class="s w2" d="M400,2700 C401,2718 403,2736 403,2754 C403,2772 402,2790 402,2808"/>

<!-- Leaves on branch -->
<path class="s w1" d="M310,2696 C294,2682 284,2664 282,2646 C286,2662 296,2680 311,2694"/>
<path class="s w1" d="M310,2698 C292,2692 280,2678 276,2660 C280,2676 292,2690 311,2696"/>
<path class="s w1" d="M490,2696 C506,2682 516,2664 518,2646 C514,2662 504,2680 489,2694"/>
<path class="s w1" d="M490,2698 C508,2692 520,2678 524,2660 C520,2676 508,2690 489,2696"/>
<path class="s w1" d="M210,2698 C192,2684 182,2664 180,2645 C184,2662 194,2682 211,2696"/>
<path class="s w1" d="M590,2698 C608,2684 618,2664 620,2645 C616,2662 606,2682 589,2696"/>

<!-- THE RIPE MANGO being plucked -->
<path class="s w2" d="M370,2834 C354,2850 344,2876 344,2908 C344,2940 354,2968 372,2986 C390,3004 412,3010 430,3002 C448,2994 460,2972 462,2944 C464,2916 454,2886 438,2868 C424,2850 404,2840 388,2838 C380,2836 374,2834 370,2834"/>
<!-- texture lines on harvest mango -->
<path class="s w1" d="M348,2854 C360,2849 374,2851 386,2858"/>
<path class="s w1" d="M346,2872 C358,2867 374,2869 388,2876"/>
<path class="s w1" d="M345,2892 C358,2887 376,2889 392,2896"/>
<path class="s w1" d="M345,2912 C358,2907 378,2909 394,2916"/>
<path class="s w1" d="M348,2932 C360,2927 380,2929 396,2936"/>
<path class="s w1" d="M354,2952 C365,2947 382,2949 397,2956"/>
<path class="s w1" d="M363,2970 C373,2965 388,2967 401,2974"/>
<path class="s w1" d="M448,2870 C438,2864 426,2866 416,2872"/>
<path class="s w1" d="M456,2888 C445,2882 432,2884 420,2890"/>
<path class="s w1" d="M460,2908 C449,2902 434,2904 421,2910"/>
<path class="s w1" d="M460,2928 C450,2922 436,2924 424,2930"/>
<path class="s w1" d="M458,2948 C448,2942 434,2944 422,2950"/>
<path class="s w1" d="M452,2966 C443,2961 430,2963 419,2968"/>
<!-- stem with leaf -->
<path class="s w15" d="M402,2832 C401,2818 402,2804 402,2792 C402,2780 402,2768 402,2754"/>
<path class="s w1" d="M402,2810 C414,2798 428,2790 440,2786 C428,2792 414,2800 403,2812"/>
<path class="s w1" d="M403,2800 C412,2792 424,2787"/>

<!-- LEFT HAND — carefully drawn -->
<!-- Palm and fingers wrapping left side of mango -->
<!-- Palm base -->
<path class="s w15" d="M290,2910 C286,2892 288,2874 296,2860 C304,2846 316,2840 330,2842 C344,2844 354,2856 358,2872 C362,2888 358,2906 348,2918 C338,2930 322,2934 308,2930 C298,2926 292,2918 290,2910"/>
<!-- Thumb -->
<path class="s w15" d="M294,2892 C288,2878 284,2862 286,2848 C288,2836 296,2828 306,2830 C316,2832 320,2844 318,2858 C316,2870 308,2882 300,2890 C297,2892 295,2892 294,2892"/>
<path class="s w1" d="M289,2852 C292,2846 298,2842 304,2843"/>
<path class="s w1" d="M288,2864 C291,2858 297,2855 303,2856"/>
<!-- Index finger -->
<path class="s w15" d="M354,2862 C356,2846 354,2830 350,2818 C346,2806 338,2800 330,2802 C322,2804 318,2814 318,2828 C318,2842 324,2856 332,2864 C340,2872 350,2870 354,2862"/>
<path class="s w1" d="M320,2820 C324,2814 330,2811 336,2813"/>
<path class="s w1" d="M319,2834 C323,2828 330,2825 337,2827"/>
<path class="s w1" d="M320,2848 C324,2842 331,2840 338,2842"/>
<!-- Middle finger -->
<path class="s w15" d="M360,2876 C364,2858 362,2840 358,2826 C354,2812 346,2804 338,2806 C330,2808 326,2820 326,2836 C326,2852 332,2866 340,2874 C348,2882 358,2882 360,2876"/>
<path class="s w1" d="M328,2830 C332,2822 338,2818 345,2820"/>
<path class="s w1" d="M327,2846 C331,2838 338,2835 346,2837"/>
<path class="s w1" d="M328,2860 C332,2854 339,2851 347,2854"/>
<!-- Ring finger (partial) -->
<path class="s w15" d="M358,2892 C364,2876 364,2858 360,2844 C356,2832 348,2824 340,2826 C332,2828 328,2840 328,2856 C328,2868 332,2880 340,2888 C348,2896 356,2898 358,2892"/>
<!-- Wrist suggestion -->
<path class="s w1" d="M292,2930 C286,2942 284,2954 286,2966"/>
<path class="s w1" d="M300,2934 C294,2946 292,2958 294,2970"/>
<!-- skin fold lines -->
<path class="s w1" d="M294,2916 C300,2912 308,2912 314,2916"/>

<!-- RIGHT HAND — mirrored -->
<path class="s w15" d="M510,2910 C514,2892 512,2874 504,2860 C496,2846 484,2840 470,2842 C456,2844 446,2856 442,2872 C438,2888 442,2906 452,2918 C462,2930 478,2934 492,2930 C502,2926 508,2918 510,2910"/>
<!-- Thumb R -->
<path class="s w15" d="M506,2892 C512,2878 516,2862 514,2848 C512,2836 504,2828 494,2830 C484,2832 480,2844 482,2858 C484,2870 492,2882 500,2890 C503,2892 505,2892 506,2892"/>
<path class="s w1" d="M511,2852 C508,2846 502,2842 496,2843"/>
<path class="s w1" d="M512,2864 C509,2858 503,2855 497,2856"/>
<!-- Index finger R -->
<path class="s w15" d="M446,2862 C444,2846 446,2830 450,2818 C454,2806 462,2800 470,2802 C478,2804 482,2814 482,2828 C482,2842 476,2856 468,2864 C460,2872 450,2870 446,2862"/>
<path class="s w1" d="M480,2820 C476,2814 470,2811 464,2813"/>
<path class="s w1" d="M481,2834 C477,2828 470,2825 463,2827"/>
<path class="s w1" d="M480,2848 C476,2842 469,2840 462,2842"/>
<!-- Middle finger R -->
<path class="s w15" d="M440,2876 C436,2858 438,2840 442,2826 C446,2812 454,2804 462,2806 C470,2808 474,2820 474,2836 C474,2852 468,2866 460,2874 C452,2882 442,2882 440,2876"/>
<path class="s w1" d="M472,2830 C468,2822 462,2818 455,2820"/>
<path class="s w1" d="M473,2846 C469,2838 462,2835 454,2837"/>
<path class="s w1" d="M472,2860 C468,2854 461,2851 453,2854"/>
<!-- Ring finger R -->
<path class="s w15" d="M442,2892 C436,2876 436,2858 440,2844 C444,2832 452,2824 460,2826 C468,2828 472,2840 472,2856 C472,2868 468,2880 460,2888 C452,2896 444,2898 442,2892"/>
<path class="s w1" d="M508,2930 C514,2942 516,2954 514,2966"/>
<path class="s w1" d="M500,2934 C506,2946 508,2958 506,2970"/>
<path class="s w1" d="M506,2916 C500,2912 492,2912 486,2916"/>

<!-- ══════════════════════════════════════════════════
     STAGE 8 — FARM TO YOU  y≈2990–3170
══════════════════════════════════════════════════ -->
<text font-size="20" text-anchor="middle" x="400" y="3018">మీకోసం</text>
<text font-size="10" text-anchor="middle" x="400" y="3034" font-family="Georgia,serif" opacity="0.5" letter-spacing="2">FOR YOU</text>

<!-- WOODEN CRATE — proper perspective box -->
<!-- Front face -->
<path class="s w2" d="M130,3080 L670,3080 L670,3180 L130,3180 Z"/>
<!-- Top rim (foreshortened) -->
<path class="s w2" d="M130,3080 L150,3058 L650,3058 L670,3080"/>
<!-- Top face -->
<path class="s w15" d="M150,3058 L650,3058 L670,3080 L130,3080 Z"/>
<!-- Crate planks — front face horizontal planks -->
<path class="s w1" d="M130,3112 L670,3112"/>
<path class="s w1" d="M130,3146 L670,3146"/>
<!-- Vertical slat dividers on front face -->
<path class="s w1" d="M240,3080 L240,3180"/>
<path class="s w1" d="M350,3080 L350,3180"/>
<path class="s w1" d="M460,3080 L460,3180"/>
<path class="s w1" d="M570,3080 L570,3180"/>
<!-- wood grain texture on planks -->
<path class="s w1" d="M145,3084 C146,3094 145,3104 146,3112" opacity="0.4"/>
<path class="s w1" d="M170,3082 C171,3094 170,3104 171,3112" opacity="0.4"/>
<path class="s w1" d="M255,3082 C256,3094 255,3104 256,3112" opacity="0.4"/>
<path class="s w1" d="M280,3084 C281,3094 280,3104 281,3112" opacity="0.4"/>
<path class="s w1" d="M365,3082 C366,3094 365,3104 366,3112" opacity="0.4"/>
<path class="s w1" d="M390,3084 C391,3094 390,3104 391,3112" opacity="0.4"/>
<path class="s w1" d="M475,3082 C476,3094 475,3104 476,3112" opacity="0.4"/>
<path class="s w1" d="M500,3084 C501,3094 500,3104 501,3112" opacity="0.4"/>
<path class="s w1" d="M585,3082 C586,3094 585,3104 586,3112" opacity="0.4"/>
<path class="s w1" d="M620,3084 C621,3094 620,3104 621,3112" opacity="0.4"/>
<!-- grain on second plank level -->
<path class="s w1" d="M145,3116 C146,3128 145,3138 146,3146" opacity="0.4"/>
<path class="s w1" d="M175,3116 C176,3128 175,3138 176,3146" opacity="0.4"/>
<path class="s w1" d="M260,3116 C261,3128 260,3138 261,3146" opacity="0.4"/>
<path class="s w1" d="M370,3116 C371,3128 370,3138 371,3146" opacity="0.4"/>
<path class="s w1" d="M480,3116 C481,3128 480,3138 481,3146" opacity="0.4"/>
<path class="s w1" d="M590,3116 C591,3128 590,3138 591,3146" opacity="0.4"/>
<!-- Top face planks -->
<path class="s w1" d="M248,3058 L254,3080"/>
<path class="s w1" d="M346,3058 L348,3080"/>
<path class="s w1" d="M444,3058 L458,3080"/>
<path class="s w1" d="M542,3058 L562,3080"/>
<!-- Top face grain -->
<path class="s w1" d="M170,3062 C175,3068 174,3074 175,3079" opacity="0.4"/>
<path class="s w1" d="M270,3060 C272,3066 271,3072 272,3079" opacity="0.4"/>
<path class="s w1" d="M380,3060 C381,3066 380,3072 381,3079" opacity="0.4"/>
<path class="s w1" d="M490,3060 C491,3066 490,3072 491,3079" opacity="0.4"/>
<path class="s w1" d="M600,3062 C601,3068 600,3074 601,3079" opacity="0.4"/>

<!-- STRAW LAYER inside crate — on top face -->
<!-- straw strands on top -->
<path class="s w1" d="M155,3072 C175,3068 200,3070 220,3067 C240,3064 265,3066 285,3063 C305,3060 330,3062 350,3060 C370,3058 395,3060 415,3058 C435,3056 460,3058 480,3060 C500,3062 525,3060 545,3062 C565,3064 590,3062 615,3064 C635,3066 655,3064 665,3066"/>
<path class="s w1" d="M158,3075 C178,3072 202,3073 225,3071 C248,3069 272,3070 296,3068"/>
<path class="s w1" d="M405,3069 C428,3067 452,3068 476,3066 C500,3064 524,3065 548,3063 C570,3061 598,3063 620,3065 C638,3067 658,3065 665,3068"/>
<!-- straw individual strands visible -->
<path class="s w1" d="M162,3070 C164,3075 163,3080 164,3085" opacity="0.6"/>
<path class="s w1" d="M185,3068 C187,3074 186,3080 187,3086" opacity="0.6"/>
<path class="s w1" d="M215,3066 C217,3072 216,3078 217,3084" opacity="0.6"/>
<path class="s w1" d="M245,3064 C247,3070 246,3076 247,3082" opacity="0.6"/>
<path class="s w1" d="M296,3062 C298,3068 297,3074 298,3080" opacity="0.6"/>
<path class="s w1" d="M330,3060 C332,3066 331,3072 332,3078" opacity="0.6"/>
<path class="s w1" d="M360,3059 C362,3065 361,3071 362,3077" opacity="0.6"/>
<path class="s w1" d="M420,3059 C422,3065 421,3071 422,3077" opacity="0.6"/>
<path class="s w1" d="M455,3060 C457,3066 456,3072 457,3078" opacity="0.6"/>
<path class="s w1" d="M510,3062 C512,3068 511,3074 512,3080" opacity="0.6"/>
<path class="s w1" d="M554,3064 C556,3070 555,3076 556,3082" opacity="0.6"/>
<path class="s w1" d="M590,3066 C592,3072 591,3078 592,3084" opacity="0.6"/>
<path class="s w1" d="M628,3068 C630,3074 629,3080 630,3086" opacity="0.6"/>
<path class="s w1" d="M658,3067 C660,3073 659,3079 660,3084" opacity="0.6"/>

<!-- MANGOES in crate — top-down view, nestled in straw -->
<!-- Mango 1 — top left area of crate viewed from above -->
<path class="s w15" d="M200,3095 C186,3103 178,3117 178,3134 C178,3151 186,3165 200,3170 C214,3175 230,3170 238,3158 C246,3146 246,3128 236,3116 C228,3106 214,3096 200,3095"/>
<path class="s w1" d="M182,3108 C190,3104 200,3105 208,3110"/>
<path class="s w1" d="M180,3122 C188,3118 200,3119 210,3124"/>
<path class="s w1" d="M180,3136 C188,3132 202,3133 213,3138"/>
<path class="s w1" d="M183,3150 C191,3146 204,3147 214,3152"/>
<path class="s w1" d="M234,3118 C226,3113 218,3114 212,3119"/>
<path class="s w1" d="M240,3132 C231,3127 222,3128 215,3133"/>
<path class="s w1" d="M240,3148 C232,3143 222,3144 215,3149"/>

<!-- Mango 2 -->
<path class="s w15" d="M308,3086 C294,3094 286,3108 286,3125 C286,3142 294,3156 308,3161 C322,3166 338,3161 346,3149 C354,3137 354,3119 344,3107 C336,3097 322,3087 308,3086"/>
<path class="s w1" d="M290,3099 C298,3095 308,3096 316,3101"/>
<path class="s w1" d="M288,3113 C296,3109 308,3110 318,3115"/>
<path class="s w1" d="M288,3127 C296,3123 310,3124 321,3129"/>
<path class="s w1" d="M291,3141 C299,3137 312,3138 322,3143"/>
<path class="s w1" d="M342,3109 C334,3104 326,3105 320,3110"/>
<path class="s w1" d="M348,3123 C339,3118 330,3119 323,3124"/>

<!-- Mango 3 — center feature mango -->
<path class="s w15" d="M376,3090 C360,3098 350,3114 350,3133 C350,3152 360,3168 376,3174 C392,3180 410,3174 420,3162 C430,3150 430,3130 420,3116 C410,3104 394,3094 380,3092 C378,3091 377,3090 376,3090"/>
<path class="s w1" d="M354,3104 C362,3100 374,3101 384,3106"/>
<path class="s w1" d="M352,3120 C360,3116 374,3117 386,3122"/>
<path class="s w1" d="M352,3136 C360,3132 376,3133 389,3138"/>
<path class="s w1" d="M354,3152 C362,3148 378,3149 390,3154"/>
<path class="s w1" d="M366,3166 C374,3163 386,3164 396,3168"/>
<path class="s w1" d="M418,3118 C410,3113 400,3114 393,3119"/>
<path class="s w1" d="M424,3134 C415,3129 404,3130 396,3135"/>
<path class="s w1" d="M422,3150 C414,3145 403,3146 396,3151"/>

<!-- Mango 4 -->
<path class="s w15" d="M486,3088 C472,3096 464,3110 464,3127 C464,3144 472,3158 486,3163 C500,3168 516,3163 524,3151 C532,3139 532,3121 522,3109 C514,3099 500,3089 486,3088"/>
<path class="s w1" d="M468,3101 C476,3097 486,3098 494,3103"/>
<path class="s w1" d="M466,3115 C474,3111 486,3112 496,3117"/>
<path class="s w1" d="M466,3129 C474,3125 488,3126 499,3131"/>
<path class="s w1" d="M469,3143 C477,3139 490,3140 500,3145"/>
<path class="s w1" d="M520,3111 C512,3106 504,3107 498,3112"/>
<path class="s w1" d="M526,3127 C517,3122 508,3123 501,3128"/>

<!-- Mango 5 -->
<path class="s w15" d="M594,3092 C580,3100 572,3114 572,3131 C572,3148 580,3162 594,3167 C608,3172 624,3167 632,3155 C640,3143 640,3125 630,3113 C622,3103 608,3093 594,3092"/>
<path class="s w1" d="M576,3105 C584,3101 594,3102 602,3107"/>
<path class="s w1" d="M574,3119 C582,3115 594,3116 604,3121"/>
<path class="s w1" d="M574,3133 C582,3129 596,3130 607,3135"/>
<path class="s w1" d="M577,3147 C585,3143 598,3144 608,3149"/>
<path class="s w1" d="M628,3115 C620,3110 612,3111 606,3116"/>
<path class="s w1" d="M634,3129 C625,3124 616,3125 609,3130"/>

<!-- LABEL TAG -->
<path class="s w15" d="M145,2988 L260,2988 L260,3030 L202,3034 L145,3030 Z"/>
<circle class="s w1" cx="154" cy="3009" r="5"/>
<!-- String -->
<path class="s w1" d="M150,3009 C140,3022 135,3038 136,3052 C137,3064 140,3072 142,3080"/>
<text font-size="12" text-anchor="middle" x="204" y="3008" font-family="Georgia,serif" font-style="italic">Aamrutham</text>
<text font-size="8" text-anchor="middle" x="204" y="3022" font-family="Georgia,serif" letter-spacing="1" opacity="0.7">farm fresh</text>
<!-- tiny mango motif on label -->
<path class="s w1" d="M160,2996 C156,3000 154,3006 154,3012 C154,3018 156,3022 160,3024 C164,3026 168,3024 170,3020 C172,3016 172,3010 170,3006 C168,3002 164,2996 160,2996"/>

<!-- ══════════════════════════════════════════════════
     CONNECTIVE TRUNK SPINE running full height
══════════════════════════════════════════════════ -->
<!-- Connect Stage1 sprout to Stage2 stem -->
<path class="s w2" d="M399,480 C398,498 400,516 399,534 C398,552 400,570 399,588"/>
<!-- Connect Stage2 stem to Stage3 trunk top -->
<path class="s w3" d="M399,780 C399,802 399,824 399,846 C399,860 399,874 399,888"/>
<!-- Connect Stage3 root bottom to Stage4 branch base -->
<path class="s w3" d="M399,1258 C399,1278 399,1298 399,1318 C399,1338 399,1356 399,1370"/>
<!-- Connect Stage4 base to Stage5 branch -->
<path class="s w3" d="M399,1590 C399,1612 399,1636 399,1660 C399,1688 399,1716 399,1740 C399,1755 399,1768 399,1770"/>
<!-- Connect Stage5 to Stage6 -->
<path class="s w3" d="M400,2050 C400,2075 400,2100 400,2125 C400,2150 400,2172 400,2200"/>
<!-- Connect Stage6 to Stage7 branch -->
<path class="s w3" d="M400,2560 C400,2580 400,2600 400,2620 C400,2648 400,2672 400,2700"/>
<!-- Connect harvest to crate -->
<path class="s w1" d="M395,2972 C392,2988 390,3006 390,3020 C390,3034 393,3046 396,3058"/>
<path class="s w1" d="M405,2972 C408,2988 410,3006 410,3020 C410,3034 407,3046 404,3058"/>

<!-- ══════════════════════════════════════════════════
     DECORATIVE CORNER MOTIFS
══════════════════════════════════════════════════ -->
<!-- Top left corner leaf cluster -->
<path class="s w1" d="M30,30 C38,38 42,50 38,62 C34,50 30,40 30,30"/>
<path class="s w1" d="M30,30 C42,38 54,42 62,38 C50,34 38,30 30,30"/>
<!-- Top right -->
<path class="s w1" d="M770,30 C762,38 758,50 762,62 C766,50 770,40 770,30"/>
<path class="s w1" d="M770,30 C758,38 746,42 738,38 C750,34 762,30 770,30"/>
<!-- Bottom left -->
<path class="s w1" d="M30,3170 C38,3162 42,3150 38,3138 C34,3150 30,3160 30,3170"/>
<path class="s w1" d="M30,3170 C42,3162 54,3158 62,3162 C50,3166 38,3170 30,3170"/>
<!-- Bottom right -->
<path class="s w1" d="M770,3170 C762,3162 758,3150 762,3138 C766,3150 770,3160 770,3170"/>
<path class="s w1" d="M770,3170 C758,3162 746,3158 738,3162 C750,3166 762,3170 770,3170"/>

<!-- Footer -->
<text font-size="9" text-anchor="middle" x="400" y="3192" font-family="Georgia,serif" letter-spacing="2" opacity="0.35">aamrutham.in</text>

</svg>
